<?xml version="1.0" encoding="utf-8"?>
<!-- Generator: Adobe Illustrator 24.3.0, SVG Export Plug-In . SVG Version: 6.00 Build 0)  -->
<svg version="1.1" id="Layer_1" xmlns="http://www.w3.org/2000/svg" xmlns:xlink="http://www.w3.org/1999/xlink" x="0px" y="0px"
	 viewBox="0 0 9.69 7.68" width="24" height="19" style="enable-background:new 0 0 9.69 7.68;" xml:space="preserve">
<style type="text/css">
	.st0{fill:#B2D56D;}
	.st1{fill:#333333;stroke:#FFFFFF;stroke-width:0.285;stroke-miterlimit:10;}
	.st2{opacity:0.9;}
</style>
<rect x="-168.51" y="-172.82" style="fill:none;" width="135.58" height="56.81"/>
<text transform="matrix(1 0 0 1 -168.5094 -167.2915)" style="opacity:0.9;fill:#939292; font-family:'Montserrat-Regular'; font-size:6.5px;">Cosmetics › Rover</text>
<text transform="matrix(1 0 0 1 -108.1461 -167.2915)" style="opacity:0.9;fill:#939292; font-family:'Montserrat-Regular'; font-size:6.5px; letter-spacing:22;">	</text>
<text transform="matrix(1 0 0 1 -83.5817 -167.2915)" style="opacity:0.9;fill:#939292; font-family:'Montserrat-Regular'; font-size:6.5px;">Tom Doe</text>
<text transform="matrix(0.583 0 0 0.583 -52.8961 -169.4565)" style="fill:#E5207A; font-family:'Montserrat-Regular'; font-size:6.5px;"> </text>
<text transform="matrix(0.583 0 0 0.583 -51.8268 -169.4565)" style="fill:#EF5DA2; font-family:'Montserrat-Regular'; font-size:6.5px;">[ Martian]</text>
<text transform="matrix(1 0 0 1 -168.5094 -159.8921)" style="opacity:0.9;fill:#939292; font-family:'Montserrat-Regular'; font-size:6.5px;">MARC</text>
<text transform="matrix(1 0 0 1 -147.7496 -159.8921)" style="opacity:0.9;fill:#939292; font-family:'Montserrat-Regular'; font-size:6.5px; letter-spacing:76;">	</text>
<text transform="matrix(1 0 0 1 -69.6949 -159.8921)" style="opacity:0.9;fill:#939292; font-family:'Montserrat-Regular'; font-size:6.5px;">1 week ago</text>
<text transform="matrix(1 0 0 1 -168.5094 -140.0923)" style="fill:#FFFFFF; font-family:'Montserrat-Bold'; font-size:12.5px;">rover spider skin -  </text>
<text transform="matrix(1 0 0 1 -168.5094 -127.6919)" style="fill:#FFFFFF; font-family:'Montserrat-Bold'; font-size:12.5px;">expire halloween</text>
<text transform="matrix(1 0 0 1 -168.5094 -117.2915)" style="opacity:0.9;fill:#EE2A7B; font-family:'Montserrat-Regular'; font-size:7.5px; letter-spacing:1;">skin</text>
<path class="st0" d="M5.27,0.03c-0.03,0-0.05-0.01-0.08-0.01C5.08,0.01,4.96,0,4.84,0c0,0,0,0,0,0s0,0,0,0
	C4.71,0,4.59,0.01,4.47,0.02c-0.03,0-0.05,0.01-0.08,0.01C4.3,0.04,4.2,0.05,4.1,0.07c-0.02,0-0.04,0.01-0.06,0.01
	C2.76,0.36,1.71,1.26,1.25,2.46h0.01c-0.12,0.31-0.2,0.63-0.24,0.96h0H0.83C0.37,3.43,0,3.8,0,4.25h0.49h0.53h0
	c0.04,0.34,0.12,0.66,0.24,0.96H1.25c0.46,1.2,1.51,2.11,2.79,2.38c0.02,0,0.04,0.01,0.06,0.01C4.2,7.63,4.3,7.64,4.4,7.65
	c0.03,0,0.05,0.01,0.08,0.01c0.12,0.01,0.24,0.02,0.36,0.02c0,0,0,0,0,0s0,0,0,0c0.12,0,0.24-0.01,0.36-0.02
	c0.03,0,0.05-0.01,0.08-0.01c0.1-0.01,0.2-0.03,0.29-0.04c0.02,0,0.04-0.01,0.06-0.01c1.28-0.27,2.33-1.18,2.79-2.38H8.41
	c0.12-0.31,0.2-0.63,0.24-0.96h0.02h0.19c0.46,0,0.83-0.37,0.83-0.83H9.2H8.67H8.65C8.61,3.09,8.53,2.77,8.41,2.46h0.01
	c-0.46-1.2-1.51-2.11-2.79-2.38c-0.02,0-0.04-0.01-0.06-0.01C5.47,0.05,5.37,0.04,5.27,0.03z M5.13,0.75c0.02,0,0.03,0,0.05,0.01
	C5.27,0.77,5.36,0.78,5.45,0.8c0,0,0,0,0,0c1.28,0.26,2.27,1.32,2.45,2.63H7.15H6.13h-0.8H4.31H1.76C1.94,2.12,2.93,1.06,4.21,0.8
	c0,0,0.01,0,0.01,0C4.31,0.78,4.4,0.77,4.49,0.75c0.02,0,0.03,0,0.05-0.01c0.1-0.01,0.19-0.01,0.29-0.01
	C4.93,0.73,5.03,0.74,5.13,0.75z M5.46,6.88C5.46,6.88,5.45,6.88,5.46,6.88C5.36,6.9,5.27,6.91,5.18,6.92c-0.02,0-0.03,0-0.05,0.01
	c-0.1,0.01-0.19,0.01-0.29,0.01c-0.1,0-0.2-0.01-0.29-0.01c-0.02,0-0.03,0-0.05-0.01C4.4,6.91,4.31,6.9,4.21,6.88c0,0,0,0,0,0
	C2.93,6.62,1.94,5.56,1.76,4.25h2.55h1.02h0.8h1.02h0.76C7.73,5.56,6.74,6.62,5.46,6.88z"/>
<g>
	
		<text transform="matrix(1 0 0 1 -82.9508 7.3034)" style="opacity:0.9;fill:#B2D56D; font-family:'Montserrat-Regular'; font-size:10px; letter-spacing:2;">1.000</text>
</g>
<rect x="-100.22" y="13.99" class="st1" width="67.29" height="20.35"/>
<g class="st2">
	<rect x="-99.05" y="20.34" style="fill:none;" width="64.96" height="7.44"/>
	
		<text transform="matrix(1 0 0 1 -90.751 25.8698)" style="opacity:0.9;fill:#FFFFFF; font-family:'Montserrat-Regular'; font-size:6.5px; letter-spacing:1;">view more</text>
</g>
<rect x="-168.51" y="8.18" style="fill:none;" width="79.37" height="41.16"/>
<text transform="matrix(1 0 0 1 -168.5094 23.1079)"><tspan x="0" y="0" style="opacity:0.9;fill:#A9A8A8; font-family:'Montserrat-Regular'; font-size:6.5px;">Expire:</tspan><tspan x="0" y="9.4" style="opacity:0.9;fill:#A9A8A8; font-family:'Montserrat-Regular'; font-size:6.5px;">2022 / 10 / 31</tspan></text>
</svg>
